<svg xmlns="http://www.w3.org/2000/svg" viewBox="0 0 145.13 121.33"><defs><style>.cls-1{fill:#565b5e;}.cls-2{fill:#373b3f;}.cls-3{fill:#242a2d;}.cls-4{fill:#141719;}.cls-5{fill:#191d20;}.cls-6{fill:#3b3c3b;}.cls-7{fill:#545754;}.cls-8{fill:#484948;}.cls-10,.cls-9{fill:#2e2f2e;}.cls-10{opacity:0.25;}.cls-11{opacity:0.4;}</style></defs><g id="Layer_2" data-name="Layer 2"><g id="RankIcons"><path class="cls-1" d="M104.42,34.45,92.57,43.33,63.68,0H81.46Z"/><path class="cls-2" d="M72.57,13.33q-10,15-20,30L40.71,34.45,63.68,0Z"/><polygon class="cls-2" points="47.56 80.83 33.06 102.58 18.56 80.83 47.56 80.83"/><polygon class="cls-3" points="130.61 24.57 96.91 49.85 92.57 43.33 126.57 17.83 130.61 24.57"/><polygon class="cls-4" points="126.57 67.33 113.07 80.83 95.07 80.83 108.57 67.33 126.57 67.33"/><polygon class="cls-5" points="145.13 48.77 126.57 67.33 108.57 67.33 96.91 49.85 130.61 24.57 145.13 48.77"/><polygon class="cls-3" points="14.52 24.57 48.22 49.85 52.57 43.33 18.57 17.83 14.52 24.57"/><polygon class="cls-4" points="50.07 80.83 32.07 80.83 18.57 67.33 36.57 67.33 50.07 80.83"/><polygon class="cls-5" points="48.22 49.85 36.57 67.33 18.57 67.33 0 48.77 14.52 24.57 48.22 49.85"/><polygon class="cls-1" points="126.56 80.83 112.06 102.58 97.56 80.83 126.56 80.83"/><polygon class="cls-4" points="90.56 103.33 72.56 121.33 54.56 103.33 63.56 94.33 72.56 103.33 81.56 94.33 90.56 103.33"/><polygon class="cls-6" points="72.57 13.33 72.57 67.33 36.57 67.33 72.57 13.33"/><polygon class="cls-7" points="108.57 67.33 72.57 67.33 72.57 13.33 108.57 67.33"/><polygon class="cls-8" points="108.57 67.33 72.57 103.33 72.57 67.33 108.57 67.33"/><polygon class="cls-9" points="72.57 67.33 72.57 103.33 36.57 67.33 72.57 67.33"/><polygon class="cls-1" points="63.56 94.33 50.06 107.83 36.56 107.83 33.06 102.58 47.56 80.83 50.06 80.83 63.56 94.33"/><polygon class="cls-2" points="112.06 102.58 108.56 107.83 95.06 107.83 81.56 94.33 95.06 80.83 97.56 80.83 112.06 102.58"/><polygon class="cls-10" points="96.56 79.33 72.56 103.33 48.56 79.33 72.56 43.33 96.56 79.33"/><polygon class="cls-11" points="108.57 67.33 81.57 94.33 72.56 103.33 50.07 80.83 48.56 79.34 48.56 79.32 36.56 67.33 72.56 13.33 108.57 67.33"/><path class="cls-4" d="M120.56,22.35l-16.14,12.1-8.06-12.1Z"/><path class="cls-4" d="M24.57,22.35l16.14,12.1,8.06-12.1Z"/></g></g></svg>