<svg xmlns="http://www.w3.org/2000/svg" viewBox="0 0 145.13 108"><defs><style>.cls-1{fill:#373b3f;}.cls-2{fill:#242a2d;}.cls-3{fill:#141719;}.cls-4{fill:#191d20;}.cls-5{fill:#565b5e;}.cls-6{fill:#3b3c3b;}.cls-7{fill:#545754;}.cls-8{fill:#484948;}.cls-10,.cls-9{fill:#2e2f2e;}.cls-10{opacity:0.25;}.cls-11{opacity:0.4;}</style></defs><g id="Layer_2" data-name="Layer 2"><g id="RankIcons"><polygon class="cls-1" points="47.56 67.5 33.06 89.25 18.56 67.5 47.56 67.5"/><polygon class="cls-2" points="130.61 11.24 96.91 36.52 92.57 30 126.57 4.5 130.61 11.24"/><polygon class="cls-3" points="126.57 54 113.07 67.5 95.07 67.5 108.57 54 126.57 54"/><polygon class="cls-4" points="145.13 35.44 126.57 54 108.57 54 96.91 36.52 130.61 11.24 145.13 35.44"/><polygon class="cls-2" points="14.52 11.24 48.22 36.52 52.57 30 18.57 4.5 14.52 11.24"/><polygon class="cls-3" points="50.07 67.5 32.07 67.5 18.57 54 36.57 54 50.07 67.5"/><polygon class="cls-4" points="48.22 36.52 36.57 54 18.57 54 0 35.44 14.52 11.24 48.22 36.52"/><polygon class="cls-5" points="126.56 67.5 112.06 89.25 97.56 67.5 126.56 67.5"/><polygon class="cls-3" points="90.56 90 72.56 108 54.56 90 63.56 81 72.56 90 81.56 81 90.56 90"/><polygon class="cls-6" points="72.57 0 72.57 54 36.57 54 72.57 0"/><polygon class="cls-7" points="108.57 54 72.57 54 72.57 0 108.57 54"/><polygon class="cls-8" points="108.57 54 72.57 90 72.57 54 108.57 54"/><polygon class="cls-9" points="72.57 54 72.57 90 36.57 54 72.57 54"/><polygon class="cls-5" points="63.56 81 50.06 94.5 36.56 94.5 33.06 89.25 47.56 67.5 50.06 67.5 63.56 81"/><polygon class="cls-1" points="112.06 89.25 108.56 94.5 95.06 94.5 81.56 81 95.06 67.5 97.56 67.5 112.06 89.25"/><polygon class="cls-10" points="96.56 66 72.56 90 48.56 66 72.56 30 96.56 66"/><polygon class="cls-11" points="108.57 54 81.57 81 72.56 89.99 50.07 67.5 48.56 66 48.56 65.99 36.56 54 72.56 0 108.57 54"/></g></g></svg>