<svg xmlns="http://www.w3.org/2000/svg" viewBox="0 0 72.01 90"><defs><style>.cls-1{fill:#242a2d;}.cls-2{fill:#3b3c3b;}.cls-3{fill:#545754;}.cls-4{fill:#484948;}.cls-5,.cls-6{fill:#2e2f2e;}.cls-6{opacity:0.25;}.cls-7{opacity:0.4;}</style></defs><g id="Layer_2" data-name="Layer 2"><g id="RankIcons"><line class="cls-1" x1="60.35" y1="36.52" x2="56" y2="30"/><polygon class="cls-2" points="36 0 36 54 0 54 36 0"/><polygon class="cls-3" points="72 54 36 54 36 0 72 54"/><polygon class="cls-4" points="72 54 36 90 36 54 72 54"/><polygon class="cls-5" points="36 54 36 90 0 54 36 54"/><polygon class="cls-6" points="60 66 36 90 12 66 36 30 60 66"/><polygon class="cls-7" points="72.01 54 45 81 36 89.99 13.5 67.5 11.99 66 11.99 65.99 0 54 36 0 72.01 54"/></g></g></svg>