<svg xmlns="http://www.w3.org/2000/svg" viewBox="0 0 145.13 121.33"><defs><style>.cls-1{fill:#f9dd7a;}.cls-2{fill:#faf079;}.cls-3{fill:#7d7;}.cls-4{fill:#2c9947;}.cls-5{fill:#2ea94a;}.cls-6{fill:#1e6d37;}.cls-7{fill:#278a43;}.cls-8{fill:#267c3e;}.cls-9{fill:#1c5e2f;}.cls-10{fill:#d67b2d;}.cls-11{fill:#040;opacity:0.25;}.cls-12{fill:#b4ecb4;}</style></defs><g id="Layer_2" data-name="Layer 2"><g id="RankIcons"><path class="cls-1" d="M104.42,34.45,92.57,43.33,63.68,0H81.46Z"/><path class="cls-2" d="M72.57,13.33q-10,15-20,30L40.71,34.45,63.68,0Z"/><polygon class="cls-3" points="130.61 24.57 96.91 49.85 92.57 43.33 126.57 17.83 130.61 24.57"/><polygon class="cls-4" points="126.57 67.33 113.07 80.83 95.07 80.83 108.57 67.33 126.57 67.33"/><polygon class="cls-5" points="145.13 48.77 126.57 67.33 108.57 67.33 96.91 49.85 130.61 24.57 145.13 48.77"/><polygon class="cls-3" points="14.52 24.57 48.22 49.85 52.57 43.33 18.57 17.83 14.52 24.57"/><polygon class="cls-4" points="50.07 80.83 32.07 80.83 18.57 67.33 36.57 67.33 50.07 80.83"/><polygon class="cls-5" points="48.22 49.85 36.57 67.33 18.57 67.33 0 48.77 14.52 24.57 48.22 49.85"/><polygon class="cls-1" points="126.57 80.83 108.57 107.83 95.07 107.83 81.57 94.33 95.07 80.83 126.57 80.83"/><polygon class="cls-4" points="90.56 103.33 72.56 121.33 54.56 103.33 63.56 94.33 72.56 103.33 81.56 94.33 90.56 103.33"/><polygon class="cls-6" points="72.57 13.33 72.57 67.33 36.57 67.33 72.57 13.33"/><polygon class="cls-7" points="108.57 67.33 72.57 67.33 72.57 13.33 108.57 67.33"/><polygon class="cls-8" points="108.57 67.33 72.57 103.33 72.57 67.33 108.57 67.33"/><polygon class="cls-9" points="72.57 67.33 72.57 103.33 36.57 67.33 72.57 67.33"/><path class="cls-10" d="M72.57,13.33q-10,15-20,30L40.71,34.45,63.68,0Z"/><polygon class="cls-10" points="63.57 94.33 50.07 107.83 36.57 107.83 18.57 80.83 50.07 80.83 63.57 94.33"/><path class="cls-4" d="M120.56,22.35l-16.14,12.1-8.06-12.1Z"/><path class="cls-4" d="M24.57,22.35l16.14,12.1,8.06-12.1Z"/><polygon class="cls-10" points="112.07 102.58 108.57 107.83 95.07 107.83 81.57 94.33 95.07 80.83 97.57 80.83 112.07 102.58"/><polygon class="cls-1" points="33.07 102.58 36.57 107.83 50.07 107.83 63.57 94.33 50.07 80.83 47.57 80.83 33.07 102.58"/><polygon class="cls-11" points="96.56 79.35 81.57 94.34 72.57 103.33 50.08 80.84 48.57 79.35 48.57 79.34 56.57 67.34 72.57 43.34 88.56 67.34 96.56 79.35"/><path class="cls-3" d="M72.57,43.35v40l-16-16Q64.57,55.35,72.57,43.35Z"/><path class="cls-12" d="M72.57,43.35l8,12,8,12-16,16Z"/></g></g></svg>