<svg xmlns="http://www.w3.org/2000/svg" viewBox="0 0 72 90"><defs><style>.cls-1{fill:#ffe049;}.cls-2,.cls-6{fill:#fff2af;}.cls-3{fill:#edc324;}.cls-4{fill:#d80e0e;}.cls-5{fill:#f54d4d;}.cls-6{opacity:0.25;}</style></defs><g id="Layer_2" data-name="Layer 2"><g id="RankIcons"><polygon class="cls-1" points="36 0 36 54 0 54 36 0"/><polygon class="cls-2" points="72 54 36 54 36 0 72 54"/><polygon class="cls-1" points="72 54 36 90 36 54 72 54"/><polygon class="cls-3" points="36 54 36 90 0 54 36 54"/><path class="cls-4" d="M36,30V70L20,54Z"/><path class="cls-5" d="M36,30l8,12,8,12L36,70Z"/><path class="cls-6" d="M60,66h0L45,81l-9,9L13.51,67.51,12,66h0l8-12h0L36,70,52,54Z"/></g></g></svg>