<svg xmlns="http://www.w3.org/2000/svg" viewBox="0 0 108 108"><defs><style>.cls-1{fill:#ffe049;}.cls-2{fill:#de9f02;}.cls-3,.cls-8{fill:#fff2af;}.cls-4{fill:#edc324;}.cls-5{fill:#f9c02a;}.cls-6{fill:#d80e0e;}.cls-7{fill:#f54d4d;}.cls-8{opacity:0.25;}</style></defs><g id="Layer_2" data-name="Layer 2"><g id="RankIcons"><polygon class="cls-1" points="108 67.5 90 94.5 76.5 94.5 63 81 76.5 67.5 108 67.5"/><polygon class="cls-2" points="72 90 54 108 36 90 45 81 54 90 63 81 72 90"/><polygon class="cls-1" points="54 0 54 54 18 54 54 0"/><polygon class="cls-3" points="90 54 54 54 54 0 90 54"/><polygon class="cls-1" points="90 54 54 90 54 54 90 54"/><polygon class="cls-4" points="54 54 54 90 18 54 54 54"/><polygon class="cls-5" points="45 81 31.5 94.5 18 94.5 0 67.5 31.5 67.5 45 81"/><polygon class="cls-5" points="93.5 89.25 90 94.5 76.5 94.5 63 81 76.5 67.5 79 67.5 93.5 89.25"/><polygon class="cls-1" points="14.5 89.25 18 94.5 31.5 94.5 45 81 31.5 67.5 29 67.5 14.5 89.25"/><path class="cls-6" d="M54,30V70L38,54Z"/><path class="cls-7" d="M54,30l8,12,8,12L54,70Z"/><path class="cls-8" d="M78,66h0L63,81l-9,9L31.51,67.51,30,66h0l8-12h0L54,70,70,54Z"/></g></g></svg>