<svg xmlns="http://www.w3.org/2000/svg" viewBox="0 0 72 90"><defs><style>.cls-1{fill:#6ddac7;}.cls-2{fill:#bfefe7;}.cls-3{fill:#82e0cf;}.cls-4{fill:#4cc5ab;}.cls-5{fill:#d80e0e;}.cls-6{fill:#f54d4d;}.cls-7{fill:#9daac6;}.cls-8{fill:#b3c0d4;}.cls-9{fill:#a4b3d4;}.cls-10{fill:#7285a7;}</style></defs><g id="Layer_2" data-name="Layer 2"><g id="RankIcons"><polygon class="cls-1" points="36 0 36 54 0 54 36 0"/><polygon class="cls-2" points="72 54 36 54 36 0 72 54"/><polygon class="cls-3" points="72 54 36 90 36 54 72 54"/><polygon class="cls-4" points="36 54 36 90 0 54 36 54"/><path class="cls-5" d="M36,30V70L20,54Z"/><path class="cls-6" d="M36,30l8,12,8,12L36,70Z"/><path class="cls-7" d="M36,30V54H20Z"/><path class="cls-8" d="M52,54H36V30c.5.74,7.5,11.25,8,12S51.46,53.19,52,54Z"/><path class="cls-9" d="M52,54,36,70V54H52Z"/><path class="cls-10" d="M36,54V70L20,54Z"/><path class="cls-5" d="M36,30V70L20,54Z"/><path class="cls-6" d="M52,54,36,70V30c.5.74,7.5,11.25,8,12s7.46,11.18,8,12Z"/></g></g></svg>