<svg xmlns="http://www.w3.org/2000/svg" viewBox="0 0 145.13 108"><defs><style>.cls-1{fill:#6dd9b9;}.cls-2{fill:#2eb28c;}.cls-3{fill:#33c69c;}.cls-4{fill:#99f1dd;}.cls-5{fill:#6ddac7;}.cls-6{fill:#bfefe7;}.cls-7{fill:#82e0cf;}.cls-8{fill:#4cc5ab;}.cls-9{fill:#29e2b7;}.cls-10{fill:#d80e0e;}.cls-11{fill:#f54d4d;}.cls-12{fill:#9daac6;}.cls-13{fill:#b3c0d4;}.cls-14{fill:#a4b3d4;}.cls-15{fill:#7285a7;}</style></defs><g id="Layer_2" data-name="Layer 2"><g id="RankIcons"><polygon class="cls-1" points="130.61 11.24 96.91 36.52 92.57 30 126.57 4.5 130.61 11.24"/><polygon class="cls-2" points="126.57 54 113.07 67.5 95.07 67.5 108.57 54 126.57 54"/><polygon class="cls-3" points="145.13 35.44 126.57 54 108.57 54 96.91 36.52 130.61 11.24 145.13 35.44"/><polygon class="cls-1" points="14.52 11.24 48.22 36.52 52.57 30 18.57 4.5 14.52 11.24"/><polygon class="cls-2" points="50.07 67.5 32.07 67.5 18.57 54 36.57 54 50.07 67.5"/><polygon class="cls-3" points="48.22 36.52 36.57 54 18.57 54 0 35.44 14.52 11.24 48.22 36.52"/><polygon class="cls-4" points="126.57 67.5 108.57 94.5 95.07 94.5 81.57 81 95.07 67.5 126.57 67.5"/><polygon class="cls-2" points="90.56 90 72.56 108 54.56 90 63.56 81 72.56 90 81.56 81 90.56 90"/><polygon class="cls-5" points="72.57 0 72.57 54 36.57 54 72.57 0"/><polygon class="cls-6" points="108.57 54 72.57 54 72.57 0 108.57 54"/><polygon class="cls-7" points="108.57 54 72.57 90 72.57 54 108.57 54"/><polygon class="cls-8" points="72.57 54 72.57 90 36.57 54 72.57 54"/><polygon class="cls-9" points="63.57 81 50.07 94.5 36.57 94.5 18.57 67.5 50.07 67.5 63.57 81"/><polygon class="cls-9" points="112.07 89.25 108.57 94.5 95.07 94.5 81.57 81 95.07 67.5 97.57 67.5 112.07 89.25"/><polygon class="cls-4" points="33.07 89.25 36.57 94.5 50.07 94.5 63.57 81 50.07 67.5 47.57 67.5 33.07 89.25"/><path class="cls-10" d="M72.57,30V70l-16-16Z"/><path class="cls-11" d="M72.57,30l8,12,8,12-16,16Z"/><path class="cls-12" d="M72.56,30V54h-16Z"/><path class="cls-13" d="M88.55,54h-16V30c.5.74,7.5,11.25,8,12S88,53.19,88.55,54Z"/><path class="cls-14" d="M88.56,54l-16,16V54h16Z"/><path class="cls-15" d="M72.56,54V70l-16-16Z"/><path class="cls-10" d="M72.56,30V70l-16-16Z"/><path class="cls-11" d="M88.56,54l-16,16V30c.5.74,7.5,11.25,8,12s7.46,11.18,8,12Z"/></g></g></svg>