<svg xmlns="http://www.w3.org/2000/svg" viewBox="0 0 145.13 108"><defs><style>.cls-1{fill:#fdc94a;}.cls-2{fill:#de9f02;}.cls-3{fill:#f7b103;}.cls-4{fill:#ffe049;}.cls-10,.cls-5{fill:#fff2af;}.cls-6{fill:#edc324;}.cls-7{fill:#f9c02a;}.cls-8{fill:#d80e0e;}.cls-9{fill:#f54d4d;}.cls-10{opacity:0.25;}</style></defs><g id="Layer_2" data-name="Layer 2"><g id="RankIcons"><polygon class="cls-1" points="130.61 11.24 96.91 36.52 92.57 30 126.57 4.5 130.61 11.24"/><polygon class="cls-2" points="126.57 54 113.07 67.5 95.07 67.5 108.57 54 126.57 54"/><polygon class="cls-3" points="145.13 35.44 126.57 54 108.57 54 96.91 36.52 130.61 11.24 145.13 35.44"/><polygon class="cls-1" points="14.52 11.24 48.22 36.52 52.57 30 18.57 4.5 14.52 11.24"/><polygon class="cls-2" points="50.07 67.5 32.07 67.5 18.57 54 36.57 54 50.07 67.5"/><polygon class="cls-3" points="48.22 36.52 36.57 54 18.57 54 0 35.44 14.52 11.24 48.22 36.52"/><polygon class="cls-4" points="126.57 67.5 108.57 94.5 95.07 94.5 81.57 81 95.07 67.5 126.57 67.5"/><polygon class="cls-2" points="90.56 90 72.56 108 54.56 90 63.56 81 72.56 90 81.56 81 90.56 90"/><polygon class="cls-4" points="72.57 0 72.57 54 36.57 54 72.57 0"/><polygon class="cls-5" points="108.57 54 72.57 54 72.57 0 108.57 54"/><polygon class="cls-4" points="108.57 54 72.57 90 72.57 54 108.57 54"/><polygon class="cls-6" points="72.57 54 72.57 90 36.57 54 72.57 54"/><polygon class="cls-7" points="63.57 81 50.07 94.5 36.57 94.5 18.57 67.5 50.07 67.5 63.57 81"/><polygon class="cls-7" points="112.07 89.25 108.57 94.5 95.07 94.5 81.57 81 95.07 67.5 97.57 67.5 112.07 89.25"/><polygon class="cls-4" points="33.07 89.25 36.57 94.5 50.07 94.5 63.57 81 50.07 67.5 47.57 67.5 33.07 89.25"/><path class="cls-8" d="M72.57,30V70l-16-16Z"/><path class="cls-9" d="M72.57,30l8,12,8,12-16,16Z"/><path class="cls-10" d="M96.56,66h0l-15,15-9,9L50.07,67.51,48.56,66h0l8-12h0l16,16,16-16Z"/></g></g></svg>