<svg xmlns="http://www.w3.org/2000/svg" viewBox="0 0 145.13 121.33"><defs><style>.cls-1{fill:#ffe049;}.cls-2{fill:#faf079;}.cls-3{fill:#fdc94a;}.cls-4{fill:#de9f02;}.cls-5{fill:#f7b103;}.cls-11,.cls-6{fill:#fff2af;}.cls-7{fill:#edc324;}.cls-8{fill:#f9c02a;}.cls-9{fill:#d80e0e;}.cls-10{fill:#f54d4d;}.cls-11{opacity:0.25;}</style></defs><g id="Layer_2" data-name="Layer 2"><g id="RankIcons"><path class="cls-1" d="M104.42,34.45,92.57,43.33,63.68,0H81.46Z"/><path class="cls-2" d="M72.57,13.33q-10,15-20,30L40.71,34.45,63.68,0Z"/><polygon class="cls-3" points="130.61 24.57 96.91 49.85 92.57 43.33 126.57 17.83 130.61 24.57"/><polygon class="cls-4" points="126.57 67.33 113.07 80.83 95.07 80.83 108.57 67.33 126.57 67.33"/><polygon class="cls-5" points="145.13 48.77 126.57 67.33 108.57 67.33 96.91 49.85 130.61 24.57 145.13 48.77"/><polygon class="cls-3" points="14.52 24.57 48.22 49.85 52.57 43.33 18.57 17.83 14.52 24.57"/><polygon class="cls-4" points="50.07 80.83 32.07 80.83 18.57 67.33 36.57 67.33 50.07 80.83"/><polygon class="cls-5" points="48.22 49.85 36.57 67.33 18.57 67.33 0 48.77 14.52 24.57 48.22 49.85"/><polygon class="cls-1" points="126.57 80.83 108.57 107.83 95.07 107.83 81.57 94.33 95.07 80.83 126.57 80.83"/><polygon class="cls-4" points="90.56 103.33 72.56 121.33 54.56 103.33 63.56 94.33 72.56 103.33 81.56 94.33 90.56 103.33"/><polygon class="cls-1" points="72.57 13.33 72.57 67.33 36.57 67.33 72.57 13.33"/><polygon class="cls-6" points="108.57 67.33 72.57 67.33 72.57 13.33 108.57 67.33"/><polygon class="cls-1" points="108.57 67.33 72.57 103.33 72.57 67.33 108.57 67.33"/><polygon class="cls-7" points="72.57 67.33 72.57 103.33 36.57 67.33 72.57 67.33"/><path class="cls-8" d="M72.57,13.33q-10,15-20,30L40.71,34.45,63.68,0Z"/><polygon class="cls-8" points="63.57 94.33 50.07 107.83 36.57 107.83 18.57 80.83 50.07 80.83 63.57 94.33"/><path class="cls-4" d="M120.56,22.35l-16.14,12.1-8.06-12.1Z"/><path class="cls-4" d="M24.57,22.35l16.14,12.1,8.06-12.1Z"/><polygon class="cls-8" points="112.07 102.58 108.57 107.83 95.07 107.83 81.57 94.33 95.07 80.83 97.57 80.83 112.07 102.58"/><polygon class="cls-1" points="33.07 102.58 36.57 107.83 50.07 107.83 63.57 94.33 50.07 80.83 47.57 80.83 33.07 102.58"/><path class="cls-9" d="M72.57,43.35v40l-16-16Q64.57,55.35,72.57,43.35Z"/><path class="cls-10" d="M72.57,43.35l8,12,8,12-16,16Z"/><path class="cls-11" d="M96.56,79.33h0l-15,15-9,9L50.07,80.84l-1.51-1.5h0l8-12h0l16,16,16-16Z"/></g></g></svg>