<svg xmlns="http://www.w3.org/2000/svg" viewBox="0 0 108 108"><defs><style>.cls-1{fill:#776c67;}.cls-2{fill:#857872;}.cls-3{fill:#332e2c;}.cls-4{fill:#4e4744;}.cls-5{fill:#413a38;}.cls-6{fill:#252220;}.cls-7{fill:#7b564d;opacity:0.14;}</style></defs><g id="Layer_2" data-name="Layer 2"><g id="RankIcons"><polygon class="cls-1" points="29 67.5 14.5 89.25 0 67.5 29 67.5"/><polygon class="cls-2" points="108 67.5 93.5 89.25 79 67.5 108 67.5"/><polygon class="cls-3" points="72 90 54 108 36 90 45 81 54 90 63 81 72 90"/><polygon class="cls-3" points="54 0 54 54 18 54 54 0"/><polygon class="cls-4" points="90 54 54 54 54 0 90 54"/><polygon class="cls-5" points="90 54 54 90 54 54 90 54"/><polygon class="cls-6" points="54 54 54 90 18 54 54 54"/><polygon class="cls-2" points="45 81 31.5 94.5 18 94.5 14.5 89.25 29 67.5 31.5 67.5 45 81"/><polygon class="cls-1" points="93.5 89.25 90 94.5 76.5 94.5 63 81 76.5 67.5 79 67.5 93.5 89.25"/><polygon class="cls-7" points="78 66 54 90 30 66 54 30 78 66"/></g></g></svg>