<svg xmlns="http://www.w3.org/2000/svg" viewBox="0 0 108 108"><defs><style>.cls-1{fill:#99f1dd;}.cls-2{fill:#2eb28c;}.cls-3{fill:#6ddac7;}.cls-4{fill:#bfefe7;}.cls-5{fill:#82e0cf;}.cls-6{fill:#4cc5ab;}.cls-7{fill:#29e2b7;}.cls-8{fill:#d80e0e;}.cls-9{fill:#f54d4d;}.cls-10{fill:#9daac6;}.cls-11{fill:#b3c0d4;}.cls-12{fill:#a4b3d4;}.cls-13{fill:#7285a7;}</style></defs><g id="Layer_2" data-name="Layer 2"><g id="RankIcons"><polygon class="cls-1" points="108 67.5 90 94.5 76.5 94.5 63 81 76.5 67.5 108 67.5"/><polygon class="cls-2" points="72 90 54 108 36 90 45 81 54 90 63 81 72 90"/><polygon class="cls-3" points="54 0 54 54 18 54 54 0"/><polygon class="cls-4" points="90 54 54 54 54 0 90 54"/><polygon class="cls-5" points="90 54 54 90 54 54 90 54"/><polygon class="cls-6" points="54 54 54 90 18 54 54 54"/><polygon class="cls-7" points="45 81 31.5 94.5 18 94.5 0 67.5 31.5 67.5 45 81"/><polygon class="cls-7" points="93.5 89.25 90 94.5 76.5 94.5 63 81 76.5 67.5 79 67.5 93.5 89.25"/><polygon class="cls-1" points="14.5 89.25 18 94.5 31.5 94.5 45 81 31.5 67.5 29 67.5 14.5 89.25"/><path class="cls-8" d="M54,30V70L38,54Z"/><path class="cls-9" d="M54,30l8,12,8,12L54,70Z"/><path class="cls-10" d="M54,30V54H38Z"/><path class="cls-11" d="M70,54H54V30c.5.74,7.5,11.25,8,12S69.46,53.19,70,54Z"/><path class="cls-12" d="M70,54,54,70V54H70Z"/><path class="cls-13" d="M54,54V70L38,54Z"/><path class="cls-8" d="M54,30V70L38,54Z"/><path class="cls-9" d="M70,54,54,70V30c.5.74,7.5,11.25,8,12s7.46,11.18,8,12Z"/></g></g></svg>